# xmcd
#
# Track frame offsets:
# 150
# 53091
# 84066
# 92662
# 112695
# 149606
# 155943
# 195883
#
# Disc length: 4004 seconds
#
#
# Revision: 0
# Processed by: cddbd v1.5.2PL0 Copyright (c) Steve Scherf et al.
# Submitted via: FreeRIP 2.943 
#
DISCID=5a0fa208
DTITLE=Animal - LP1
DYEAR=2006
DGENRE=Fusion
TTITLE0=the ocean is a fickle mistress
TTITLE1=i fucking hate chutney
TTITLE2=the body without organs
TTITLE3=i fucking love chutney
TTITLE4=mega-science, speed-logic, and you
TTITLE5=too much pork for just one fork
TTITLE6=Arroyo!
TTITLE7=me and tupac against the world
EXTD=ripped/spread by q
EXTT0=
EXTT1=
EXTT2=
EXTT3=
EXTT4=
EXTT5=
EXTT6=
EXTT7=
PLAYORDER=
